<svg fill="none" height="512" viewBox="0 0 36 36" width="512" xmlns="http://www.w3.org/2000/svg"><g id="36 Multicolor / Flag / mc_36_flag_haiti"><g id="mc_36_flag_Haiti"><path id="Path" d="m36 18c0 9.94-8.06 18-18 18s-18-8.06-18-18 18-18 18-18 18 8.06 18 18z" fill="#a2001d"/><path id="Path_2" d="m0 18c0-9.94 8.06-18 18-18s18 8.06 18 18" fill="#0052b4"/><path id="Path_3" d="m24.26 22.6959-6.26-.783-6.26.783v-9.39h12.52z" fill="#f0f0f0"/><path id="Oval" d="m18 21.9131c1.7286 0 3.13-1.4014 3.13-3.13 0-1.7287-1.4014-3.13-3.13-3.13-1.7287 0-3.13 1.4013-3.13 3.13 0 1.7286 1.4013 3.13 3.13 3.13z" fill="#0052b4"/><path id="Oval_2" d="m18 20.348c.8643 0 1.565-.7007 1.565-1.565s-.7007-1.565-1.565-1.565-1.565.7007-1.565 1.565.7007 1.565 1.565 1.565z" fill="#a2001d"/><path id="Path_4" d="m15.652 14.8701h4.696l-2.348 2.347z" fill="#6da544"/><path id="Path_5" d="m17.217 16.4351h1.565v4.696h-1.565z" fill="#ffda44"/><path id="Path_6" d="m20.504 20.6599h-5.01l-3.756 2.035h12.522z" fill="#6da544"/></g></g></svg>