<?xml version="1.0" encoding="utf-8"?>
<!-- Generator: Adobe Illustrator 26.0.0, SVG Export Plug-In . SVG Version: 6.00 Build 0)  -->
<svg version="1.1" id="Capa_1" xmlns="http://www.w3.org/2000/svg" xmlns:xlink="http://www.w3.org/1999/xlink" x="0px" y="0px"
	 viewBox="0 0 600 600" style="enable-background:new 0 0 600 600;" xml:space="preserve">
<style type="text/css">
	.st0{fill:#FFFFFF;}
	.st1{fill:url(#SVGID_1_);}
	.st2{fill:#B22223;}
	.st3{fill:#F8D701;}
	.st4{fill:none;stroke:#B22223;stroke-width:2;stroke-miterlimit:10;}
</style>
<g>
	<path d="M300,0C134.3,0,0,134.3,0,300s134.3,300,300,300c165.7,0,300-134.3,300-300S465.7,0,300,0z M300,552.5
		c-139.5,0-252.5-113-252.5-252.5S160.5,47.5,300,47.5s252.5,113,252.5,252.5S439.5,552.5,300,552.5z"/>
	<g>
		<path class="st0" d="M305,11c0,2.9,0.2,3,4.4,3c4.3,0,4.5,0.1,4.8,3.2c0.3,3.2,0.5,3.3,5.1,3.6l4.7,0.3v5V31h-5c-4.9,0-5,0.1-5,3
			s-0.2,3-4.5,3s-4.5,0.1-4.5,3v3h-7.5H290v-3c0-2.9-0.1-3-5-3s-5-0.1-5-3s-0.2-3-4.5-3H271v-5v-5h4.5c4.5,0,4.5,0,4.5-3.5V14h5
			c4.9,0,5-0.1,5-3V8h7.5h7.5V11z"/>
		<path class="st0" d="M375.8,18c4.2,1.1,4.3,1.2,3.6,4.4c-0.6,3.2-0.4,3.4,3.3,4.1c5.1,0.9,5.3,1.1,4.3,4.4
			c-0.8,2.8-0.6,2.9,3.6,4.1c2.4,0.7,4.4,1.5,4.4,1.7s-0.5,2.4-1.1,4.9c-0.8,3-1.6,4.3-2.5,4c-0.7-0.3-2.8-0.8-4.7-1.1
			c-3.3-0.6-3.5-0.5-4.2,2.3l-0.6,3l-4.4-1.3c-4.6-1.4-5.5-1.2-5.5,1.7c0,2.2-1.7,2.3-9.2,0.2c-5.6-1.6-5.9-1.8-5.3-4.4
			s0.3-2.8-3.9-3.9c-4.4-1.1-4.5-1.2-3.9-4.5c0.5-3.3,0.4-3.4-3.6-4.1c-4.5-0.7-4.6-1.1-3-6.9c1-3.6,1.2-3.8,4.2-3.1
			c5.5,1.2,6,1.1,6.7-1.5s1.4-2.8,6.8-1.6c2.5,0.6,3.3,0.4,3.7-0.8c0.3-0.9,0.7-2.3,1-3.1c0.3-1.1,1-1.2,3.2-0.5
			C370.2,16.5,373.4,17.4,375.8,18z"/>
		<path class="st0" d="M229.5,18.5c0.3,0.8,0.7,2.2,1,3c0.3,1.2,1,1.2,4.9,0.1l4.5-1.4l0.6,3c0.7,2.8,0.9,2.9,4.2,2.3
			c1.9-0.3,4-0.8,4.7-1.1c0.9-0.3,1.7,1,2.5,4c0.6,2.5,1.1,4.7,1.1,4.9s-2,1-4.4,1.7c-4.2,1.2-4.4,1.3-3.6,4.1
			c1,3.3,0.8,3.5-4.3,4.4c-3.5,0.7-3.8,1-3.5,3.8c0.3,2.9,0.1,3-6.2,4.8c-8.2,2.3-7.8,2.3-8.2-0.4c-0.3-2.3-1-2.4-7.2-1.6
			c-2.5,0.3-3.1,0-3.6-2.1c-0.7-2.6-1.2-2.7-6.7-1.5c-3,0.7-3.2,0.5-4.2-3.1c-1.6-5.8-1.5-6.2,3-6.9c4-0.7,4.1-0.8,3.6-4.1
			c-0.6-3.3-0.5-3.4,3.9-4.5c4.3-1.1,4.4-1.3,3.9-4.3c-0.6-3.1-0.6-3.2,5.2-4.8C228.2,16.7,229,16.7,229.5,18.5z"/>
		<path class="st0" d="M448.9,48.9c1.3,0.8,1.2,1.3-0.2,3.5c-1.7,2.5-1.7,2.5,2.3,4.8c2.7,1.6,3.8,2.8,3.4,3.8
			c-1.7,4.2-1.5,4.9,1.8,6.6c1.8,0.9,3.4,1.8,3.6,1.9c0.6,0.6-3.9,8.5-4.8,8.5c-0.5,0-2.4-0.9-4.2-2l-3.3-2l-2,2.6l-2.1,2.6
			l-3.9-2.3c-2.1-1.3-4-1.9-4.2-1.4c-1.4,3.9-2.1,4.1-7.5,1.1c-7.5-4.1-7.9-4.5-6.8-6.6c1.6-2.9,1.2-3.5-2.6-5.3
			c-2.7-1.4-3.4-2.2-2.9-3.5c1.7-4.1,1.5-4.7-2-6.6c-1.9-1.1-3.5-2.3-3.5-2.7c0-1,4.1-7.9,4.6-7.9c0.3,0,2.3,0.9,4.4,2l4,2.1
			l1.2-2.6c1.4-3,1.4-3,5.6-0.5c4.2,2.6,4.6,2.5,6.1-0.6l1.1-2.6l5.3,3.1C445.1,46.6,448.1,48.4,448.9,48.9z"/>
		<path class="st0" d="M159,45.8c0,0.5,0.6,1.6,1.3,2.6c1.2,1.7,1.5,1.7,5.1-0.5l3.8-2.2l1.8,2.4c1.8,2.3,2,2.3,5.2,0.8
			c4.6-2.2,5-2.1,7.6,2.2l2.2,3.8l-4,2.2c-4.5,2.6-4.6,2.6-2.5,5.6c1.5,2.1,1.4,2.3-2.5,4.5c-2.7,1.6-3.8,2.8-3.4,3.8
			c0.3,0.8,0.8,2,1.1,2.6c0.2,0.7-2.4,2.9-5.8,4.9l-6.2,3.8L161,80l-1.8-2.3l-3.8,2.2c-3.6,2.1-3.9,2.2-5.1,0.5
			c-0.7-0.9-1.4-2.2-1.6-2.7c-0.2-0.7-1.8-0.2-4.1,1.1c-2.1,1.2-4.2,2-4.7,1.6c-1.3-0.8-5.1-8.4-4.2-8.4c0.5,0,2.3-0.9,4.1-2
			c3.2-1.9,3.2-2.1,1.8-4.8c-1.5-2.9-1.4-2.9,2.5-5.1c2.1-1.2,3.9-2.4,3.9-2.7c0-0.3-0.7-1.5-1.5-2.8c-1.6-2.3-1.5-2.4,4.7-6
			C157.8,44.9,159,44.5,159,45.8z"/>
		<path class="st0" d="M480.7,85.2l3.3,3.2l2.2-2.2l2.2-2.2l3.3,3.2c3.1,3,3.4,3.1,5.1,1.5c1-0.9,2.3-1.7,2.7-1.7
			c0.5,0,3.1,2.1,5.7,4.7l4.8,4.7l-2.2,2.3l-2.2,2.3l3.4,3.5l3.4,3.5l-2.2,2.2l-2.2,2.2l3.2,3.3l3.2,3.3l-3.7,3.7l-3.7,3.7l-3.3-3.2
			l-3.3-3.2l-1.9,2l-1.9,2l-3.1-3c-3.5-3.4-4.2-3.6-6.5-1.5c-1.4,1.3-2.1,0.9-6.9-3.9c-4.6-4.6-5-5.4-3.7-6.6c2.2-1.8,2-3-1.1-6.2
			c-2.6-2.7-2.6-2.8-0.8-4.8s1.8-2.1-1.5-5.5l-3.4-3.5l3.4-3.5c1.9-1.9,3.6-3.5,3.9-3.5C477.2,82,478.9,83.4,480.7,85.2z"/>
		<path class="st0" d="M123,89.5l3.4,3.5l-3.2,3.3l-3.2,3.3l2.2,2.2l2.2,2.2l-3.4,3.5c-3.3,3.4-3.3,3.5-1.5,5.5
			c1.9,2.1,1.8,2.1-3.3,7.2s-5.1,5.2-7.2,3.3c-2-1.8-2.1-1.8-5.3,1.3l-3.3,3.2l-2.2-2.2l-2.2-2.2l-3.5,3.4l-3.5,3.4l-3.7-3.7
			l-3.7-3.7l3.4-3.5c3.3-3.4,3.3-3.5,1.5-5.5c-1.8-2-1.8-2.1,0.8-4.8c3.2-3.3,3.3-3.9,1-6.4c-1.6-1.8-1.4-2.1,3.5-7s5.2-5.1,7-3.5
			c2.5,2.3,3.4,2.2,6.7-1.3l2.9-3l2.1,2l2.1,2l2.9-3c1.6-1.7,3.2-3,3.5-3C119.3,86,121.1,87.6,123,89.5z"/>
		<path class="st0" d="M534.9,141.6c2.7-1.5,2.8-1.4,5,2.5c1.2,2.1,2.4,3.9,2.7,3.9s1.5-0.7,2.9-1.6c2.3-1.5,2.4-1.4,6,5.1
			c2.1,3.6,3.6,6.7,3.4,6.9s-1.4,0.9-2.7,1.5l-2.2,1.2l2.1,4.1l2.1,4.1l-2.3,1.8l-2.4,1.8l2.3,4l2.2,4l-2.2,1.2
			c-1.3,0.7-3.3,1.8-4.5,2.6c-2,1.3-2.3,1.2-4.4-2.6c-2.6-4.6-2.6-4.7-5.6-2.6c-2.1,1.5-2.3,1.4-4.5-2.5c-1.3-2.3-2.8-3.8-3.5-3.5
			s-1.9,0.8-2.7,1.1c-1,0.4-2.6-1.5-5.1-5.7l-3.7-6.3l2.2-1.6l2.2-1.7l-2.1-4.1l-2.1-4.1l2.2-1.2c1.3-0.6,2.4-1.3,2.6-1.4
			c0.2-0.2-0.6-2.1-1.7-4.4l-2.1-4l2.2-1.5c6.1-3.7,6.1-3.7,8.6,0.5C532.1,142.9,532.2,143,534.9,141.6z"/>
		<path class="st0" d="M78,145.4c0,0.6-0.9,2.4-2,4.1l-1.9,3l2.5,2l2.6,2.1l-2.2,3.7l-2.2,3.7l2.2,1.8l2.3,1.9l-3.5,5.9
			c-2,3.2-3.9,5.8-4.4,5.7c-0.5-0.1-1.7-0.5-2.6-0.8c-1.3-0.5-2.3,0.2-3.9,2.9c-2.1,3.5-4.2,4.6-5.4,2.6c-1.2-1.9-3.1-1-4.9,2.5
			c-1.1,1.9-2.4,3.5-2.9,3.5c-1.3,0-7.7-4-7.7-4.8c0-0.4,1-2.2,2.1-4.1c2-3.3,2-3.6,0.4-4.8c-1-0.7-2.3-1.4-2.8-1.6
			c-0.6-0.2-0.1-1.9,1.3-4.2l2.4-3.8l-2.6-2.1l-2.7-2.1l3.6-6c1.9-3.3,3.6-6.1,3.8-6.3s1.4,0.4,2.8,1.3c2.4,1.6,2.5,1.5,4.8-2.2
			c1.2-2.1,2.4-4,2.5-4.2c0.2-0.2,1.5,0.4,2.8,1.3c2.5,1.6,2.6,1.6,5.1-2.4l2.6-4.1l3.9,2.2C76.2,143.4,78,144.8,78,145.4z"/>
		<path class="st0" d="M563.6,203.7c0.8,3.5,1.2,3.8,4.2,3.7c3-0.2,3.3,0.1,4.3,4.2c1.1,4.3,1.2,4.4,4.4,3.8l3.2-0.6l1.7,6.7
			c1.8,7,1.5,8.5-1.3,8.5c-2.7,0-3,0.8-1.6,5.5l1.4,4.4l-3.1,0.6c-3.2,0.7-3.2,1.2-1.2,8.1c0.5,1.8,0,2.3-4,3.3
			c-2.5,0.6-4.7,1.1-4.9,1.1c-0.3,0-1-2.1-1.6-4.6c-1-4-1.4-4.4-3.4-3.8c-3.9,1.1-4.1,1-5-3.4c-0.9-4-1.2-4.3-4-4
			c-2.8,0.3-3.1,0-4.2-4.2c-2.7-10.4-2.7-9.7,0.1-10.4c2.4-0.6,2.6-1,1.9-3.9c-1.2-5.5-1.1-6,1.5-6.7c2.6-0.7,2.8-1.4,1.6-6.6
			c-0.6-2.9-0.4-3.3,2.1-4.2C561.1,199.2,562.6,199.7,563.6,203.7z"/>
		<path class="st0" d="M41.6,206.1c4,1,4.5,1.5,4,3.3c-2,6.9-2,7.4,1.2,8.1l3.1,0.6l-1.4,4.5c-1.1,3.9-1.1,4.6,0.1,5
			c0.8,0.2,2.1,0.6,2.9,0.9c1.1,0.3,1.2,1,0.5,3.2c-0.5,1.5-1.4,4.7-2,7.1c-1,4.1-1.3,4.3-3.9,3.7c-2.7-0.6-2.9-0.3-4,3.8
			c-1,4.2-1.3,4.5-4.3,4.3c-3-0.1-3.4,0.2-4.2,3.6c-1,4.1-2.2,4.5-7.5,2.7c-2.9-1-3.1-1.4-2.5-4.3c1.2-5.2,1-5.9-1.6-6.6
			s-2.8-1.4-1.6-6.7c0.7-2.9,0.5-3.3-1.8-3.9c-3-0.7-3.2-1.8-1-9.6c1.7-5.8,1.7-5.8,4.9-5.2c3.1,0.5,3.2,0.4,4.1-3.8
			c1-4.4,1.2-4.5,5.1-3.4c2,0.6,2.4,0.2,3.4-3.8c0.6-2.5,1.3-4.6,1.6-4.6C36.9,205,39.1,205.5,41.6,206.1z"/>
		<path class="st0" d="M579,275.5c0,4.5,0,4.5,3.5,4.5h3.5v5c0,4.9,0.1,5,3,5h3v7.5v7.5h-3c-2.9,0-3,0.2-3,4.4
			c0,4.3-0.1,4.5-3.2,4.8c-3.2,0.3-3.3,0.5-3.6,5.1l-0.3,4.8l-4.7-0.3l-4.7-0.3l-0.3-4.8c-0.3-4.5-0.5-4.7-3.3-4.7s-2.9-0.2-2.9-4.4
			c0-4.1-0.2-4.5-2.7-4.8c-2.7-0.3-2.8-0.5-3.1-7.6l-0.3-7.2h3.1c2.9,0,3-0.1,3-5s0.1-5,3-5c2.9,0,3-0.2,3-4.5V271h5h5V275.5z"/>
		<path class="st0" d="M31,281c0,4.9,0.1,5,3,5s3,0.2,3,4.5s0.1,4.5,3,4.5h3v7.5v7.5h-3c-2.9,0-3,0.1-3,5s-0.1,5-3,5s-3,0.2-3,4.5
			v4.5h-5h-5v-4.5c0-4.5,0-4.5-3.5-4.5H14v-5c0-4.9-0.1-5-3-5H8v-7.5V295h3c2.9,0,3-0.2,3-4.4c0-4.3,0.1-4.5,3.3-4.8
			c3.1-0.3,3.2-0.5,3.5-5.1l0.3-4.7h5H31V281z"/>
		<path class="st0" d="M573.9,343.1c3.1,1.1,3.2,1.4,2.6,4.8c-0.4,2-0.7,4-0.8,4.5c-0.1,0.5,0.9,1.2,2.3,1.6
			c2.6,0.7,2.8,1.4,1.6,6.6c-0.6,2.9-0.4,3.3,2.3,4.2c2.8,1,3,1.3,2.1,3.9c-0.5,1.5-1.4,4.7-2,7c-1,4-1.3,4.3-4.2,4
			c-2.9-0.2-3.3,0.1-4.4,3.8c-1.2,4.1-1.4,4.2-5,3.1c-1.9-0.6-2.3-0.1-3.3,3.9c-0.6,2.5-1.4,4.5-1.7,4.5s-2.5-0.5-5-1.1
			c-3-0.8-4.3-1.6-4-2.5c0.3-0.7,0.8-2.8,1.1-4.7c0.6-3.1,0.4-3.5-2-4.1c-2.5-0.6-2.7-1-2-4.4c0.4-2,0.7-4.1,0.8-4.7
			c0.1-0.5-0.8-1.1-2-1.3c-2.7-0.4-2.8-1.7-0.6-9.5c1.5-5.6,1.7-5.9,4.3-5.3c2.6,0.5,2.9,0.2,4-3.9c1.2-4.2,1.3-4.3,4.5-3.8
			c3.2,0.5,3.3,0.4,4-3.6C567.2,341.6,568.3,341.2,573.9,343.1z"/>
		<path class="st0" d="M35.1,351.4c1.1,4.3,1.2,4.4,4.3,3.9c3-0.5,3.3-0.3,4.1,3.4c0.9,3.3,1.4,3.8,3.9,3.8c2.7,0,3,0.4,4.8,6.5
			c2.3,8.1,2.3,7.7-0.8,8.4c-2.3,0.6-2.5,1-1.8,3.9c1.2,5.3,1,6-1.6,6.7c-1.4,0.4-2.4,1.1-2.3,1.6c0.1,0.5,0.4,2.5,0.8,4.5
			c0.6,3.4,0.5,3.7-2.6,4.8c-5.6,1.9-6.7,1.5-7.4-3c-0.7-4-0.8-4.1-4-3.6s-3.3,0.4-4.5-3.8c-1.2-4.1-1.4-4.3-4.4-3.8
			c-3.2,0.5-3.2,0.5-4.7-5.3c-1.9-8-1.8-8.7,1.1-9.4c1.4-0.4,2.4-1.1,2.3-1.6s-0.4-2.6-0.8-4.6c-0.7-3.4-0.5-3.8,2-4.4
			c2.4-0.6,2.6-1,2-4.1c-0.3-1.9-0.8-4-1.1-4.8c-0.4-0.8,0.8-1.6,3.3-2.3C33.7,346.6,33.9,346.7,35.1,351.4z"/>
		<path class="st0" d="M552.6,412.1c1.9,1.1,3.4,2.3,3.4,2.5c0,0.3-0.9,2.3-2,4.4c-1.1,2.2-1.7,4-1.3,4c0.5,0,1.6,0.7,2.7,1.5
			c1.8,1.4,1.8,1.5-0.4,5.2l-2.2,3.7l2.5,2.1l2.6,2l-3.3,5.7c-4.2,7.4-4,7.2-6.9,5.3c-2.4-1.6-2.5-1.5-4.8,2.2
			c-1.2,2.1-2.4,4-2.5,4.2c-0.2,0.2-1.5-0.4-2.9-1.3c-2.5-1.6-2.5-1.6-4.5,1.6c-1.1,1.8-2.1,3.7-2.3,4.2c-0.3,1-8.7-3.3-8.7-4.5
			c0-0.4,0.9-2.3,2-4.2l2.1-3.5l-2.6-1.9l-2.7-1.9l2.2-3.7l2.2-3.7l-2.3-1.9l-2.2-1.8l3.7-6.1c3.2-5.3,4-6.1,5.6-5.2
			c2.9,1.5,3.5,1.3,5.3-2.5c1.6-3.4,3.9-4.5,5.2-2.5c1.2,1.9,3.2,1,5.1-2.5C547.8,409.4,548.2,409.3,552.6,412.1z"/>
		<path class="st0" d="M58.6,420.3c0.4,1.3,1.1,1.6,2.2,1.2c4.5-1.9,5.1-1.7,6.9,1.9c1,2.2,2.2,3.5,3,3.1c0.7-0.3,1.9-0.8,2.7-1.1
			c0.9-0.3,2.6,1.6,5.1,5.7l3.8,6.2L80,439l-2.3,1.8l2.2,3.8c2.1,3.6,2.2,3.9,0.5,5.1c-0.9,0.7-2.1,1.4-2.7,1.6
			c-0.6,0.2,0,2.1,1.3,4.5c1.3,2.3,2.2,4.3,1.9,4.5c-2.5,1.9-8.4,4.7-8.6,4c-0.2-0.4-1.2-2.3-2.3-4.1c-1.9-3.1-2.1-3.2-4.8-1.8
			c-2.7,1.4-2.8,1.3-5-2.5c-2.2-3.9-2.3-3.9-5.2-2.4l-2.8,1.5l-3.8-6.7c-2-3.7-3.3-6.8-2.7-7c0.6-0.2,1.8-0.9,2.8-1.6
			c1.6-1.2,1.6-1.5-0.4-4.8c-2.7-4.3-2.6-4.7,0.4-6.1l2.5-1.1l-2.4-4.3l-2.4-4.3l4.1-2.4l4.2-2.4l1.7,2.1
			C57.2,417.6,58.2,419.3,58.6,420.3z"/>
		<path class="st0" d="M515,473.5l3.4,3.5l-3.2,3.3l-3.2,3.3l2.2,2.2l2.2,2.2l-3.4,3.5c-3.2,3.3-3.3,3.6-1.7,5.3
			c0.9,1,1.7,2.3,1.7,2.7c0,0.5-2.1,3.1-4.7,5.7l-4.7,4.8l-2.3-2.2l-2.3-2.2l-3.5,3.4l-3.5,3.4l-2.2-2.2l-2.2-2.2l-3.3,3.2l-3.3,3.2
			l-3.7-3.7l-3.7-3.7l3.2-3.3l3.2-3.3l-2-1.9l-2-1.9l3-3.1c3.4-3.5,3.7-4.7,1.4-6.5c-1.3-1.2-0.9-2,3.7-6.6c4.8-4.8,5.5-5.2,6.9-3.9
			c2.3,2.1,3.2,1.9,6.5-1.5l2.9-3l2.1,2l2.1,2l2.9-3c1.6-1.7,3.2-3,3.5-3C511.3,470,513.1,471.6,515,473.5z"/>
		<path class="st0" d="M96.5,477l2.9,3l2.3-2.2l2.3-2.2l3.5,3.4c3.4,3.3,3.5,3.3,5.5,1.5c2.1-1.9,2.1-1.8,7.2,3.3
			c5.1,5.1,5.2,5.1,3.3,7.2c-1.8,2-1.8,2.1,1.5,5.5l3.4,3.5l-2.2,2.2l-2.2,2.2l3.2,3.3l3.2,3.3l-3.7,3.7l-3.7,3.7l-3.3-3.2l-3.3-3.2
			l-1.9,2l-1.9,2l-3.1-3c-3.6-3.5-4.2-3.6-6.7-1.3c-1.8,1.6-2.1,1.4-7-3.5c-4.9-4.9-5.1-5.2-3.5-7c2.3-2.5,2.2-3.1-1.3-6.7l-3-3.1
			l2-1.9l2-1.9l-3.2-3.3l-3.2-3.3l3.4-3.5c1.9-1.9,3.7-3.5,4-3.5C93.3,474,94.9,475.3,96.5,477z"/>
		<path class="st0" d="M439.2,520.1l1.4,2.2l4.2-2.2l4.1-2.1l1.2,2.2c0.6,1.3,1.3,2.5,1.5,2.7c0.1,0.1,2.1-0.7,4.3-2
			c2.3-1.2,4.2-2.1,4.4-1.8c1.1,1.4,4.7,8.2,4.5,8.4c-0.2,0.1-2,1.2-4,2.4c-3.7,2.2-3.7,2.3-2.3,5c1.4,2.7,1.3,2.8-2.5,5
			c-3.9,2.2-4,2.3-2.5,5.1l1.5,2.8l-6.6,3.7c-3.6,2-6.7,3.5-6.8,3.3c-0.2-0.1-0.9-1.3-1.5-2.6l-1.2-2.2l-4.1,2.1
			c-4,2-4.2,2.1-5.5,0.3c-0.7-1-1.3-2.2-1.3-2.7s-2,0.3-4.4,1.7l-4.4,2.6l-2.5-4.5l-2.5-4.5l3.9-2.2c2.8-1.6,3.8-2.7,3.3-3.8
			c-1.7-4-1.5-4.7,2.1-6.5c2-1.2,3.3-2.5,3-3.2s-0.8-1.9-1.1-2.7c-0.4-1,1.4-2.6,5.3-4.9c3.2-2,6.1-3.6,6.4-3.6
			C437.5,518,438.4,519,439.2,520.1z"/>
		<path class="st0" d="M160.4,523.1l3.6,2.1l1.8-2.2l1.9-2.3l5.9,3.5c3.5,2.1,5.8,4.1,5.5,4.9c-0.2,0.8-0.5,2.1-0.8,2.9
			c-0.3,1,0.8,2.2,3.1,3.3c3.5,1.6,4.6,3.9,2.6,5.2c-1.9,1.2-1,3.1,2.5,4.9c1.9,1.1,3.5,2.4,3.5,2.9c0,1.3-4,7.7-4.8,7.7
			c-0.4,0-2.2-0.9-4.1-2.1c-3.5-2.1-3.5-2.1-6,2c-0.7,1.2-1.5,1.1-4.7-0.8l-3.8-2.3l-2.1,2.5l-2,2.6l-6-3.6
			c-3.3-1.9-6.1-3.6-6.3-3.8s0.4-1.4,1.3-2.8c1.6-2.4,1.5-2.5-2.2-4.8c-2.1-1.2-4-2.4-4.2-2.5c-0.2-0.2,0.4-1.5,1.3-2.9
			c1.6-2.5,1.6-2.5-1.6-4.5c-1.8-1.1-3.7-2.1-4.2-2.3c-1.1-0.4,3.4-8.7,4.7-8.7c0.5,0,2.5,0.9,4.3,2l3.3,2.1l1.7-2.6
			c0.9-1.4,1.8-2.5,2-2.5C156.7,521,158.5,521.9,160.4,523.1z"/>
		<path class="st0" d="M377.4,548.6c0.6,2.3,1,2.5,3.9,1.8c5.2-1.1,6.1-1,6.5,1.1c0.6,3.2,1.5,3.5,5.6,2.4c4.6-1.3,5.3-0.7,6.2,4.7
			l0.6,4.2l-4.2,0.7c-4.1,0.7-4.2,0.8-3.7,4.1c0.6,3.3,0.5,3.4-3.8,4.5c-4.2,1.1-4.3,1.2-3.8,4.3c0.5,3.1,0.5,3.1-6,4.9
			c-3.6,0.9-6.7,1.7-7,1.7c-0.3,0-1-1.3-1.5-3c-1-2.7-1.3-2.9-3.7-2c-4.4,1.7-6.4,1.2-7.1-1.6c-0.6-2.3-1-2.5-4.1-1.9
			c-1.9,0.3-4,0.8-4.7,1.1c-0.8,0.3-1.6-0.6-1.9-2.3c-0.4-1.5-0.9-3.7-1.3-4.9c-0.5-1.8,0.1-2.3,3.9-3.4c4.4-1.2,4.5-1.3,4-4.5
			s-0.4-3.3,3.6-4s4.2-0.9,3.9-3.8c-0.3-3-0.1-3.1,6.2-4.8c3.6-0.9,6.8-1.8,7.1-1.8C376.5,546,377.1,547.2,377.4,548.6z"/>
		<path class="st0" d="M239.4,550.1c3.5,1,3.8,1.3,3.3,3.9c-0.6,2.6-0.3,2.9,3.8,3.9c4.3,1.1,4.4,1.2,3.8,4.5
			c-0.5,3.3-0.4,3.4,3.7,4.1l4.2,0.7l-0.6,4.2c-0.9,5.3-1.7,6-5.8,5c-4.9-1.2-5.2-1.1-5.8,1.6c-0.7,2.6-1.4,2.8-6.7,1.6
			c-2.9-0.7-3.3-0.5-3.9,1.9c-0.6,2.5-1,2.7-4.3,2.1c-2-0.3-5.3-1.1-7.4-1.6c-3.6-1.1-3.7-1.3-3.1-4.5c0.6-3.2,0.5-3.3-3.6-4
			s-4.2-0.8-3.7-4s0.4-3.3-3.9-4.5c-2.4-0.7-4.4-1.5-4.4-1.7s0.5-2.4,1.1-4.9c0.8-3,1.6-4.3,2.5-4c0.7,0.3,2.8,0.8,4.7,1.1
			c3.1,0.6,3.5,0.4,4.1-2c0.7-2.8,1.7-2.9,8.6-1.3c0.9,0.2,1.6-0.6,1.8-2.1c0.3-2.1,0.7-2.3,4-1.7
			C233.9,548.7,237.2,549.5,239.4,550.1z"/>
		<path class="st0" d="M310,560c0,2.9,0.1,3,5,3s5,0.1,5,3s0.2,3,4.5,3h4.5v5v5h-4.5c-4.5,0-4.5,0-4.5,3.5v3.5h-5c-4.9,0-5,0.1-5,3
			v3h-7.5H295v-3c0-2.9-0.2-3-4.4-3c-4.3,0-4.5-0.1-4.8-3.3c-0.3-3.1-0.5-3.2-5.1-3.5l-4.8-0.3l0.3-4.7l0.3-4.7l4.8-0.3
			c4.5-0.3,4.7-0.5,4.7-3.3c0-2.8,0.2-2.9,4.5-2.9c4,0,4.5-0.2,4.5-2.3c0-3.4,0.6-3.7,8.2-3.7h6.8V560z"/>
	</g>
	<linearGradient id="SVGID_1_" gradientUnits="userSpaceOnUse" x1="300" y1="552.5" x2="300" y2="47.5">
		<stop  offset="0" style="stop-color:#CC2400"/>
		<stop  offset="0.3333" style="stop-color:#CC2400"/>
		<stop  offset="0.3333" style="stop-color:#328000"/>
		<stop  offset="0.6667" style="stop-color:#328000"/>
		<stop  offset="0.6667" style="stop-color:#679AE8"/>
		<stop  offset="1" style="stop-color:#75AADB"/>
	</linearGradient>
	<circle class="st1" cx="300" cy="300" r="252.5"/>
	<g>
		<circle class="st2" cx="300" cy="300" r="133.9"/>
		<circle class="st3" cx="300" cy="300" r="131.3"/>
		<path class="st2" d="M345,265.7c1.5,0.9,1.2,4.5-0.4,4.5c-2.4,0-4.6-4.2-4.6-8.6c0-3.3,0.5-4.6,2.4-6.1c1.9-1.4,2.5-2.9,2.7-6.3
			c0.2-2.5-0.1-5.1-0.5-5.8c-1.2-1.9-4.2-1.4-7.4,1.3c-3,2.5-4.2,2.4-4.2-0.6c0-4.5,9.2-7.6,13.6-4.5c1.3,1,2.5,1.1,3.5,0.5
			c0.8-0.5,2.9-0.9,4.6-0.9c2.7,0,3.4-0.5,3.9-2.7c0.6-2.2,0.2-3.1-2.4-5.3c-1.8-1.5-3.2-3.2-3.2-3.8c0-2.2,4.7-1.2,7.4,1.4
			c2.7,2.8,3.5,7.5,1.7,10.3c-0.7,1-0.3,2.3,1,3.9c1,1.4,1.9,3.5,1.9,4.8c0,2,0.5,2.4,2.9,2.4c3.2,0,4.6-1.3,5.6-5.3
			c0.4-1.5,1.3-2.7,2-2.7c2,0,2.8,3.6,1.4,6.2c-2.3,4.6-4.1,5.8-8.4,5.8c-3.1,0-4.7,0.6-6.5,2.5c-2.2,2.3-2.2,2.5-0.6,5.1
			c1.6,2.4,2.2,2.5,6.2,1.9c4.6-0.7,5.9,0.6,3.2,3.3c-3.1,3.1-13.8-0.3-13.8-4.4c0-0.8-1.2-1.9-2.7-2.4c-1.6-0.6-3.8-1.5-5-2.2
			c-1.7-0.8-2.6-0.8-3.8,0.2C343.8,259.6,343.5,264.7,345,265.7z"/>
		<path class="st2" d="M269.8,253.8c-6.2,17.8-30,22.5-40.5,8c-7.9-11-3.5-27.6,9-34.1c3.5-1.9,6.7-2.8,9.9-2.8h4.6l-4,1.9
			c-2.3,1-5.3,3.2-6.8,5c-10.4,12.4-0.9,30,15,27.6c3.9-0.6,5.7-1.6,9.5-5.5c2.7-2.6,4.8-4.6,4.8-4.5
			C271.3,249.5,270.6,251.5,269.8,253.8z"/>
		<path class="st2" d="M257.1,339.1c0.3-0.5,1.2-0.7,2.1-0.3c4.1,1.5,4.8,11.1,1,14c-2.9,2.3-4.3,11.8-1.9,12.8c2.7,1,5,0.5,6.8-1.5
			c2.3-2.5,4.5-2.6,4.5-0.2c0,4.4-8,8-12.5,5.6c-2.9-1.5-11.5-0.9-12.7,1c-1.7,2.5-0.7,5.5,2.2,7.3c4.6,2.7,3.3,6.4-1.5,4
			c-4.7-2.3-7-8.8-4.5-12.7c0.6-1,0.4-2-0.6-3.1c-0.8-0.9-1.9-3-2.3-4.5c-0.5-2.2-1.4-3-3.5-3.2c-2.4-0.3-2.9,0.2-4.3,3.7
			c-1.7,4.4-3.8,5.3-4.8,2.1c-0.7-2.3,1.8-7.6,4.4-9c1.1-0.5,3.5-1,5.4-1c2.3,0,4.1-0.8,5.7-2.5c2.2-2.3,2.2-2.5,0.6-5
			c-1.6-2.4-2.1-2.5-6.2-1.9c-3.7,0.5-4.4,0.4-4.4-1c0-2.6,4.4-4.1,8.8-3c2.8,0.7,4.2,1.8,5.7,4.6c1.9,3.5,3.4,4.3,9.9,5.1
			c3,0.3,4.2-2.6,2.8-6.7C257.1,341.7,256.7,339.7,257.1,339.1z"/>
		<path class="st2" d="M370.9,358.4c-5.8,4.1-6.1,4.6-5.6,7.5c0.3,1.8,0.9,5.2,1.2,7.7l0.7,4.4l-2.9-1.8c-1.6-1-4.3-2.9-6.1-4.3
			l-3.2-2.4l-7.1,3.6c-3.8,1.9-7,3.2-7,2.7c0-0.4,0.9-3.6,2.1-7.1l2.1-6.2l-5.8-5.4l-5.9-5.4l7.7-0.1h7.8l3.5-7c1.9-3.9,3.7-7,3.9-7
			s1.4,3.1,2.5,6.9l2.1,7l4.8,0.6c2.6,0.3,6.2,0.9,8,1.3l3.4,0.7L370.9,358.4z"/>
		<g>
			<rect x="167.2" y="292.1" class="st2" width="265.5" height="5"/>
			<rect x="167.2" y="302.9" class="st2" width="265.5" height="5"/>
		</g>
		<g>
			
				<rect x="161.8" y="297.5" transform="matrix(6.123234e-17 -1 1 6.123234e-17 -5.3826 594.6174)" class="st2" width="265.5" height="5"/>
			
				<rect x="172.6" y="297.5" transform="matrix(6.123234e-17 -1 1 6.123234e-17 5.3825 605.3825)" class="st2" width="265.5" height="5"/>
		</g>
		<line class="st4" x1="213.7" y1="305.4" x2="175.2" y2="344.9"/>
		<line class="st4" x1="217.5" y1="306.8" x2="177" y2="348.3"/>
		<line class="st4" x1="174.8" y1="256.1" x2="214.3" y2="294.6"/>
		<line class="st4" x1="176.2" y1="252.4" x2="217.7" y2="292.8"/>
		<line class="st4" x1="386.2" y1="305.4" x2="424.7" y2="344.9"/>
		<line class="st4" x1="382.5" y1="306.8" x2="422.9" y2="348.3"/>
		<line class="st4" x1="425.2" y1="256.1" x2="385.6" y2="294.6"/>
		<line class="st4" x1="423.8" y1="252.4" x2="382.3" y2="292.8"/>
		<line class="st4" x1="305.2" y1="386.4" x2="344.7" y2="424.9"/>
		<line class="st4" x1="306.6" y1="382.6" x2="348.1" y2="423.1"/>
		<line class="st4" x1="255.9" y1="425.3" x2="294.4" y2="385.8"/>
		<line class="st4" x1="252.2" y1="424" x2="292.6" y2="382.4"/>
		<line class="st4" x1="305.2" y1="213.9" x2="344.7" y2="175.4"/>
		<line class="st4" x1="306.6" y1="217.6" x2="348.1" y2="177.2"/>
		<line class="st4" x1="255.9" y1="174.9" x2="294.4" y2="214.5"/>
		<line class="st4" x1="252.2" y1="176.3" x2="292.6" y2="217.8"/>
	</g>
</g>
</svg>
