<?xml version="1.0" encoding="utf-8"?>
<!-- Generator: Adobe Illustrator 26.0.0, SVG Export Plug-In . SVG Version: 6.00 Build 0)  -->
<svg version="1.1" id="Layer_1" xmlns="http://www.w3.org/2000/svg" xmlns:xlink="http://www.w3.org/1999/xlink" x="0px" y="0px"
	 viewBox="0 0 585.5 197.5" style="enable-background:new 0 0 585.5 197.5;" xml:space="preserve">
<style type="text/css">
	.st0{fill:#32D4CB;}
	.st1{fill:#0035AD;}
	.st2{fill:#0092DD;}
</style>
<g>
	<path class="st0" d="M137.2,36.2l0.9-0.4c4-1.8,8-3.5,12-5.1c9-3.6,18.3-6.6,27.7-9c9.3-2.3,14,2.7,11.4,10.4
		c-0.3,0.9-0.7,1.7-1.1,2.6l-4,8c-8.7-1.4-17.5-1.9-26.3-1.5c-3.4,0.1-6.7-0.2-10-1C144.2,39.3,140.6,38,137.2,36.2 M57.3,69.3
		l0.1-1.2l0.2-2.1c0.7-11.8,1.5-24,2.2-36.5c0.6-10.2,7.7-14.4,15.6-9.6c3.1,1.9,6.2,3.7,9.2,5.4l0.6,0.3l-2.5,6.2
		c-2.1,5.1-4.1,10.2-6.2,15.3C73.4,55,65.5,64,57.3,69.3 M51.7,140.5c-2.1-1.3-4.3-2.3-6.6-3.2c-13.1-4.6-25.6-10.7-37.2-18.4
		c-9.7-6.8-10.5-12.4-1.7-12.7c4.6-0.4,9.2-1.2,13.7-2.5l1.9,1.5c5.7,4.5,11.4,8.7,17.1,12.5C46.2,122.8,51.6,132.5,51.7,140.5
		 M125.1,158.3c-3.9,2.2-7.4,5-10.3,8.4c-8.3,10.2-16.6,20.6-24.8,28c-6.3,5.5-13.2,2.5-15.3-5.3l-3.2-13c7.9-4,15.7-8.5,23.1-13.5
		C102.6,157.7,116.1,154.9,125.1,158.3 M171.4,104.3l0.7,1.4c6.6,13,13.2,27.3,19.8,42.3c5,11.6,0.9,17.4-9,14l-0.5-0.2
		c-3.4-1.1-6.7-2.1-10-3c-2-12.3-4-24.3-6-35.8c-0.5-2.8-0.6-5.6-0.4-8.4c0.3-5.3,1.6-10.6,3.6-15.5
		C170,100.8,170.6,102.6,171.4,104.3"/>
	<path class="st1" d="M125.1,158.3c-9.1-3.3-22.5-0.6-30.6,4.7c-7.4,4.9-15.1,9.4-23.1,13.5l-0.5-1.6c-1.6-5.9-3.2-11.7-4.9-17.6
		c-1.1-4.1-4.2-8.4-8.2-12c-1.9-1.7-4-3.3-6.2-4.6c-0.1-8-5.4-17.8-12.8-22.8c-5.7-3.9-11.4-8-17.1-12.5l-1.9-1.5
		c2.4-0.7,4.8-1.5,7.2-2.4c4.6-1.8,9.1-3.8,13.4-6.2c8.4-4.5,15.8-16.4,16.9-25.8c8.2-5.2,16.1-14.3,19.2-22.1
		c2-5.1,4.1-10.2,6.2-15.3l2.6-6.2c6.9,4,13.8,7.7,20.6,11.3c7.5,4,21.3,3.3,31.3-0.8c3.4,1.7,7,3.1,10.7,3.9c3.3,0.8,6.6,1.1,10,1
		c8.8-0.4,17.6,0.2,26.3,1.5c-4.6,9.2-9.1,18.5-13.5,28.1c-3.5,7.6-3.8,18.9-1.2,28.2c-2.1,4.9-3.3,10.2-3.6,15.5
		c-0.2,2.8,0,5.7,0.4,8.4c2,11.5,4,23.5,6,35.8c-9.2-2.5-18.5-4.3-28-5.4c-1.2-0.1-2.3-0.2-3.5-0.1
		C135.4,153.6,130,155.4,125.1,158.3"/>
	<path class="st2" d="M184.2,42.6c0.9,0.1,1.8,0.3,2.7,0.5c3.9,0.7,7.7,1.7,11.5,2.8c10.4,3.3,12.8,12.8,5.4,18.4
		c-9.9,7.8-19.3,16.2-28.3,25.1c-2.6,2.8-4.7,6-6.1,9.5c-2.6-9.3-2.3-20.6,1.2-28.2C175.1,61.1,179.7,51.8,184.2,42.6 M85.2,25.6
		c2.4-5.8,4.7-11.4,7.1-17c4.1-9.7,11.9-11.3,17.2-4.5c6.9,8.9,13.6,17.3,20.2,26c2,2.5,4.6,4.6,7.5,6c-10,4.1-23.8,4.8-31.3,0.8
		C99,33.3,92.2,29.6,85.2,25.6 M19.8,103.7c-4-3.2-8.1-6.6-12.1-10.2c-8.1-7.4-6.6-12,3.5-12.2c13.1-0.5,26.3-3.9,39.6-8.7
		c1-0.4,2-0.8,3-1.3c1.2-0.6,2.4-1.3,3.5-2c-1.1,9.5-8.5,21.4-16.9,25.8c-4.3,2.4-8.8,4.4-13.4,6.2C24.6,102.2,22.2,103,19.8,103.7
		 M71.4,176.3c-3,1.5-6,2.9-8.9,4.2l-0.8,0.3c-8.3,3.4-14.4-0.3-13.5-7.7s1.6-14.9,2.5-22.8l0.9-8c0.1-0.6,0.1-1.2,0.1-1.9
		c2.2,1.3,4.3,2.9,6.2,4.6c4,3.6,7.1,7.9,8.2,12c1.7,5.9,3.3,11.7,4.9,17.6L71.4,176.3z M174.2,172.3c0.3,9.3-5.1,12.2-13,6.6
		c-8.9-6.4-18.3-12-28.1-16.9c-2.2-1.1-4.5-2.2-6.8-3.2l-1.3-0.5c4.8-2.8,10.2-4.6,15.7-5.1c1.2-0.1,2.3,0,3.5,0.1
		c9.5,1.1,18.8,2.9,28,5.4l1.6,9.9C174.1,169.8,174.2,171,174.2,172.3"/>
	<polygon class="st1" points="301.8,42.9 238.2,42.9 238.2,157.8 303.7,157.8 303.7,144.6 255.8,144.6 255.8,105.3 299.7,105.3 
		299.7,92 255.7,92 255.7,56.8 301.8,56.8 	"/>
	<path class="st1" d="M434.2,88.9c0.7-2.1,8.5-14.3,25.3-11.8s26.3,21.6,22.4,52.3c-3.2,25-19.4,32-41,29s-22.1-29-22.1-29V43.3
		h15.5L434.2,88.9z M435.2,122.2c0,0-2.4,24.4,14.7,25.1c14.7,0.6,17.8-14.7,17.8-27.6c0-17.1-3-30.6-13.7-30.6
		C437.7,89.2,435.2,107.8,435.2,122.2"/>
	<path class="st1" d="M551.1,148c-10.4,0-18.4-9.2-18.4-32.5c0,0-0.6-27,17.8-27c17.2,0,18.4,20.9,18.4,28.8
		C568.9,143.1,560.9,148,551.1,148 M545,76.9c0,0-32.1,1.1-29,46.4c2.4,33.9,28.1,38.8,43.9,35.2c4.6-1.1,27.9-5.4,25.5-46
		C583.4,69.9,544.9,76.8,545,76.9"/>
	<rect x="491.3" y="78.3" class="st1" width="15.7" height="79.5"/>
	<rect x="490.3" y="43.3" class="st1" width="17.8" height="16.9"/>
	<path class="st1" d="M354,80.1c0,0-22.2-7.9-35.7,0.4c-12.8,7.8-15.9,26,0.9,37c17.3,11.3,24.7,15.2,24.1,21.6
		c-0.8,7.9-12.4,12.4-35.8,3.7v12.9c0,0,27.5,8.9,41.8-1.6c14.7-10.8,11.5-27.8,1.1-35.2c-5.7-4.1-11.6-7.9-17.7-11.3
		c-5.6-3.2-14.6-9.3-7.1-15.4c7-5.8,26.9,0,28.3,1.4L354,80.1z"/>
	<path class="st1" d="M408.3,80.1c0,0-22.2-7.9-35.7,0.4c-12.8,7.8-15.9,26,0.9,37c17.3,11.3,24.7,15.2,24.1,21.6
		c-0.8,7.9-12.4,12.4-35.9,3.7v12.9c0,0,27.4,8.9,41.8-1.6c14.7-10.8,11.5-27.8,1.1-35.2c-5.7-4.1-11.6-7.9-17.7-11.3
		c-5.6-3.2-14.5-9.3-7.1-15.4c7-5.8,26.9,0,28.3,1.4L408.3,80.1z"/>
</g>
</svg>
