<?xml version="1.0" encoding="utf-8"?>
<!-- Generator: Adobe Illustrator 26.0.0, SVG Export Plug-In . SVG Version: 6.00 Build 0)  -->
<svg version="1.1" id="Capa_1" xmlns="http://www.w3.org/2000/svg" xmlns:xlink="http://www.w3.org/1999/xlink" x="0px" y="0px"
	 viewBox="0 0 734.4 186" style="enable-background:new 0 0 734.4 186;" xml:space="preserve">
<style type="text/css">
	.st0{fill:#32D4CB;}
	.st1{fill:#0035AD;}
	.st2{fill:#0092DD;}
	.st3{fill-rule:evenodd;clip-rule:evenodd;fill:#0035AD;}
</style>
<g>
	<g>
		<path class="st0" d="M129.3,34.1l0.8-0.3c3.8-1.7,7.6-3.3,11.4-4.8c8.7-3.4,17.4-6.3,26.1-8.5c8.7-2.2,13.2,2.5,10.8,9.8
			c-0.2,0.8-0.6,1.6-1,2.4l-3.8,7.5c-8.3-1.4-16.5-1.7-24.8-1.4c-3,0.1-6.3-0.3-9.4-1C135.8,36.9,132.3,35.7,129.3,34.1z M54,65.3
			c0.1-0.4,0.1-0.8,0.1-1.2l0.1-1.9c0.7-11.2,1.4-22.6,2.1-34.4c0.6-9.6,7.3-13.5,14.7-9c2.9,1.7,5.8,3.4,8.7,5.1l0.5,0.3L77.9,30
			c-1.9,4.8-3.9,9.6-5.8,14.4C69.1,51.8,61.7,60.3,54,65.3z M48.7,132.4c-2-1.2-4.1-2.2-6.2-3c-11.5-4.1-23.2-9.5-35.1-17.3
			c-9.1-6.4-9.9-11.7-1.6-12c4.3-0.3,8.6-1.2,12.9-2.4l1.8,1.4c5.4,4.3,10.8,8.2,16.1,11.8C43.5,115.6,48.6,124.8,48.7,132.4z
			 M117.9,149.1c-3.9,2.2-7.3,5-9.7,7.9c-7.8,9.6-15.6,19.5-23.4,26.4c-5.9,5.2-12.4,2.4-14.4-4.9l-3-12.3
			c7.2-3.6,14.4-7.9,21.7-12.7C96.6,148.5,109.3,145.9,117.9,149.1z M161.5,98.2c0.2,0.5,0.4,0.9,0.6,1.3
			c6.3,12.2,12.5,25.7,18.6,39.8c4.7,10.9,0.9,16.4-8.5,13.2l-0.5-0.2c-3.1-1.1-6.3-2-9.4-2.9c-1.9-11.6-3.8-22.9-5.7-33.7
			c-0.4-2.5-0.6-5.2-0.4-7.9c0.3-5,1.5-10.1,3.4-14.6C160.2,95,160.7,96.7,161.5,98.2z"/>
		<path class="st1" d="M117.9,149.1c-8.5-3.1-21.2-0.6-28.8,4.4c-7.3,4.8-14.6,9.1-21.7,12.7l-0.4-1.5c-1.5-5.5-3.1-11-4.6-16.5
			c-1.1-3.8-4-7.9-7.7-11.3c-1.8-1.6-3.8-3.1-5.9-4.4c0-7.6-5.1-16.8-12-21.4c-5.4-3.6-10.7-7.5-16.1-11.8l-1.8-1.4
			c2.2-0.6,4.5-1.4,6.8-2.3c4.2-1.6,8.4-3.6,12.6-5.8c7.9-4.2,14.8-15.4,15.9-24.4c7.7-4.9,15.1-13.5,18.1-20.9
			C74,39.6,76,34.8,77.9,30l2.4-5.8c6.6,3.7,13,7.2,19.5,10.7c7.1,3.7,20.1,3.1,29.5-0.8c3,1.6,6.5,2.9,10,3.7
			c3.2,0.7,6.4,1.1,9.4,1c8.3-0.3,16.5,0.1,24.8,1.4c-4.3,8.7-8.6,17.4-12.7,26.5c-3.3,7.1-3.6,17.8-1.1,26.6
			c-1.9,4.5-3.1,9.7-3.4,14.6c-0.2,2.7,0,5.4,0.4,7.9c1.9,10.8,3.8,22.1,5.7,33.7c-8.8-2.4-17.6-4.1-26.4-5.1
			c-1.1-0.1-2.2-0.1-3.3-0.1C127.9,144.6,122.5,146.4,117.9,149.1z"/>
		<path class="st2" d="M173.5,40.2c0.9,0.1,1.7,0.3,2.6,0.5c3.6,0.7,7.2,1.6,10.8,2.7c9.8,3.1,12.1,12,5.1,17.3
			c-9,7.2-17.9,14.8-26.7,23.6c-2.3,2.3-4.2,5.4-5.7,9c-2.4-8.8-2.2-19.5,1.1-26.6C165,57.6,169.2,48.8,173.5,40.2z M80.3,24.2
			c2.2-5.4,4.4-10.8,6.7-16C90.9-1,98.2-2.5,103.2,3.9c6.5,8.4,12.8,16.3,19.1,24.6c1.6,2.2,4.1,4.1,7,5.6
			c-9.4,3.9-22.5,4.5-29.5,0.8C93.3,31.4,86.8,27.9,80.3,24.2z M18.7,97.7c-3.8-3-7.6-6.2-11.4-9.6c-7.6-7-6.2-11.3,3.3-11.5
			c12.4-0.5,24.8-3.7,37.3-8.2c0.9-0.4,1.9-0.8,2.8-1.2c1.1-0.5,2.2-1.2,3.3-1.9c-1.1,8.9-8,20.1-15.9,24.4
			c-4.2,2.3-8.4,4.2-12.6,5.8C23.2,96.3,21,97.1,18.7,97.7z M67.3,166.1c-2.8,1.4-5.6,2.7-8.4,3.9l-0.8,0.3
			c-7.8,3.2-13.5-0.3-12.7-7.2c0.8-6.9,1.5-14,2.3-21.5l0.8-7.5c0-0.6,0.1-1.2,0.1-1.8c2.1,1.3,4.1,2.7,5.9,4.4
			c3.8,3.4,6.7,7.5,7.7,11.3c1.6,5.5,3.1,11,4.6,16.5L67.3,166.1z M164.2,162.4c0.2,8.8-4.8,11.5-12.2,6.2
			c-8.8-6.2-17.6-11.5-26.5-16c-2.1-1.1-4.3-2.1-6.4-3c-0.4-0.2-0.8-0.4-1.3-0.5c4.7-2.7,10-4.5,14.8-4.8c1.1,0,2.2,0,3.3,0.1
			c8.8,1.1,17.6,2.7,26.4,5.1l1.5,9.4C164.1,160.2,164.2,161.3,164.2,162.4z"/>
	</g>
	<g>
		<polygon class="st3" points="224.9,148.6 239,148.6 239,61.8 239.3,61.8 283.1,148.6 301.6,148.6 301.6,40.3 287.5,40.3 
			287.5,125.1 287.2,125.1 244.5,40.3 224.9,40.3 		"/>
		<path class="st3" d="M356.5,148.6h14.1V73.9h-14.1v31.7c0,14.9-8.2,30.6-19.8,30.6c-10.2,0-10.2-7.5-10.2-21.5V73.9h-14.1v51.8
			c0,9.2,2.8,24.6,20.1,24.6c15.2,0,21.3-11.5,23.7-17.8h0.3V148.6z"/>
		<path class="st3" d="M433.2,136.7c-3.3,1.1-7.7,2.6-14.1,2.6c-20.4,0-27.5-19.6-27.5-33.6h43.3v-3.6c0-17.6-8.8-30-27-30
			c-9.6,0-30.5,3.5-30.5,35.5c0,29.4,14.5,42.7,37.1,42.7c8.2,0,12.5-1.1,18.7-2.5V136.7z M392.3,96.4c0-3.3,3.3-13.2,14.9-13.2
			c10.8,0,13.7,8.5,13.7,13.2H392.3z"/>
		<polygon class="st3" points="461.1,148.6 475.5,148.6 501.4,73.9 485.7,73.9 468.3,128.2 467.9,128.2 448.5,73.9 432.8,73.9 		"/>
		<path class="st3" d="M533.3,150.4c22.5,0,32.9-15.5,32.9-39.1c0-23.9-10.5-39.1-32.9-39.1c-22.6,0-33.1,15.2-33.1,39.1
			C500.1,134.8,510.7,150.4,533.3,150.4z M515.8,111.3c0-12.1,1.9-28.1,17.4-28.1c15.2,0,17.3,16,17.3,28.1
			c0,11.9-2.1,28.1-17.3,28.1C517.7,139.4,515.8,123.2,515.8,111.3z"/>
		<path class="st3" d="M596.5,102.2c-4.9-3-10.8-5.8-10.8-11c0-4.7,6.1-8,12.2-8c8.2,0,15.1,3.4,17.1,4.4V74.9
			c-3.6-0.6-9.4-2.7-17-2.7c-15.5,0-26.5,7.4-26.5,20.9c0,11,8.2,16,14.9,20.2l7.2,4.4c5,3.3,11.9,6.4,11.9,12.1
			c0,7.7-8.5,9.6-15.2,9.6c-7.8,0-17.4-3.7-18.8-4.4v12.4c3.3,0.9,9.9,3,20.1,3c16.8,0,28.1-6.9,28.1-22.6
			c0-12.4-9.4-17.2-17.3-22.1L596.5,102.2z"/>
		<path class="st3" d="M672,148.6h14.1V73.9H672v31.7c0,14.9-8.1,30.6-19.8,30.6c-10.2,0-10.2-7.5-10.2-21.5V73.9h-14.1v51.8
			c0,9.2,2.8,24.6,20.1,24.6c15.2,0,21.3-11.5,23.7-17.8h0.3V148.6z"/>
		<path class="st3" d="M696.9,148.6H711v-31.7c0-22.9,10.7-29.4,23.4-29.4V72.2c-14.8,0-21.1,10.8-23.1,16.8H711V73.9h-14.1V148.6z"
			/>
	</g>
</g>
</svg>
